<!DOCTYPE svg PUBLIC "-//W3C//DTD SVG 1.1//EN" "http://www.w3.org/Graphics/SVG/1.1/DTD/svg11.dtd">
<!-- Uploaded to: SVG Repo, www.svgrepo.com, Transformed by: SVG Repo Mixer Tools -->
<svg fill="#984343" width="800px" height="800px" viewBox="0 0 512 512" version="1.1" xml:space="preserve" xmlns="http://www.w3.org/2000/svg" xmlns:xlink="http://www.w3.org/1999/xlink" stroke="#984343">
<g id="SVGRepo_bgCarrier" stroke-width="0"/>
<g id="SVGRepo_tracerCarrier" stroke-linecap="round" stroke-linejoin="round"/>
<g id="SVGRepo_iconCarrier"> <g id="_x31_3_x2C__heart_x2C__give_x2C__hand_x2C__favorite_x2C__love"> <g id="XMLID_15808_"> <path d="M336.883,165.715c-27.798,0-44.11,10.417-58.177,37.156c-0.806,1.531-2.394,2.49-4.124,2.49 s-3.318-0.959-4.123-2.49c-13.786-26.203-24.16-37.156-52.735-37.156c-4.555,0-8.988,0.536-13.238,1.533 c-5.681,2.548-11.229,4.806-16.429,6.709c-13.402,8.15-22.886,21.682-24.86,37.611c-0.26,2.099-0.392,4.154-0.392,6.111 c0,10.229,2.042,19.866,6.242,29.461c5.167,11.808,13.532,23.45,26.325,36.64c11.957,12.329,26.459,24.658,41.814,37.71 l0.191,0.162c12.961,11.018,26.332,22.383,39.926,35.116c13.624-12.758,27.023-24.144,40.013-35.18l0.118-0.1 c15.372-13.062,29.892-25.398,41.841-37.71c12.805-13.192,21.178-24.834,26.349-36.64c4.205-9.595,6.248-19.231,6.248-29.46 c0-1.957-0.132-4.013-0.392-6.111C388.238,185.427,364.768,165.715,336.883,165.715z" id="XMLID_15809_"/> <path d="M349.005,340.744c-21.443,2.573-78.604,28.182-96.961,53.051c-4.419,5.986-6.221,11.431-5.358,16.185 c0.103,0.604,0.232,1.176,0.377,1.723c1.134,2.698,2.78,3.726,4.055,4.272c6.523,2.8,22.584,0.593,62.062-25.815 c0.996-0.667,1.842-1.233,2.516-1.676c2.152-1.412,5.042-0.812,6.453,1.34s0.812,5.041-1.34,6.453 c-0.656,0.43-1.479,0.979-2.447,1.629c-20.366,13.624-44.797,28.292-62.036,28.292c-3.241,0-6.225-0.518-8.884-1.658 c-0.353-0.152-0.717-0.329-1.084-0.519c-0.749,0.087-1.524-0.004-2.261-0.3c-15.02-6.003-41.394-12.465-63.808-12.465 c-5.258,0-9.945,0.376-13.931,1.117c-6.896,1.251-16.356,6.22-20.284,12.376c-1.819,2.851-2.331,5.663-1.564,8.6 c1.395,5.286,15.284,14.869,49.83,24.442c27.104,7.513,58.823,12.56,78.928,12.56c5.803,0,10.563-0.432,13.767-1.247 c19.098-4.836,30.41-13.491,41.349-21.861c14.384-11.006,29.233-22.369,60.043-23.626v-84.008 c-1.54-0.045-3.531-0.075-6.105-0.075C370.168,339.533,353.25,340.216,349.005,340.744z" id="XMLID_15810_"/> <path d="M183.705,165.703c5.54-3.304,11.635-5.815,18.106-7.392c22.662-10.312,47.245-25.339,58.146-40.106 c4.419-5.986,6.223-11.432,5.358-16.186c-0.104-0.604-0.231-1.175-0.377-1.723c-1.134-2.698-2.78-3.725-4.056-4.271 c-6.521-2.8-22.583-0.594-62.06,25.813c-0.997,0.667-1.844,1.234-2.519,1.677c-0.788,0.517-1.675,0.764-2.552,0.764 c-1.518,0-3.006-0.74-3.9-2.104c-1.412-2.151-0.812-5.04,1.34-6.452c0.656-0.431,1.479-0.981,2.449-1.631 c24.195-16.186,54.12-33.84,70.917-26.632c0.354,0.152,0.72,0.329,1.088,0.519c0.746-0.085,1.52,0.006,2.256,0.3 c15.021,6.004,41.398,12.466,63.811,12.465c5.259,0,9.945-0.376,13.93-1.117c6.896-1.251,16.356-6.221,20.284-12.377 c1.819-2.851,2.331-5.663,1.564-8.6c-1.395-5.286-15.283-14.869-49.829-24.442c-27.104-7.512-58.822-12.559-78.927-12.559 c-5.804,0-10.565,0.432-13.769,1.247c-19.098,4.835-30.41,13.49-41.349,21.86c-14.383,11.007-29.234,22.37-60.042,23.627v84.007 c1.539,0.046,3.529,0.076,6.101,0.076c12.154,0,29.074-0.683,33.319-1.212C168.168,170.635,175.421,168.671,183.705,165.703z" id="XMLID_15811_"/> <path d="M67.657,181.443h46.598v-4.66V83.835V69.608H67.657V181.443z M87.661,89.617 c0.867-0.876,2.069-1.37,3.299-1.37c1.221,0,2.423,0.494,3.291,1.37c0.866,0.857,1.37,2.06,1.37,3.29 c0,1.229-0.503,2.433-1.37,3.299c-0.867,0.866-2.069,1.361-3.291,1.361c-1.23,0-2.432-0.495-3.299-1.361 c-0.867-0.876-1.361-2.069-1.361-3.299C86.3,91.677,86.794,90.484,87.661,89.617z" id="XMLID_15812_"/> <path d="M397.745,330.557v4.66v92.947v14.228h46.598V330.557H397.745z M424.34,422.392 c-0.866,0.866-2.068,1.36-3.299,1.36c-1.221,0-2.423-0.494-3.29-1.36c-0.867-0.876-1.37-2.069-1.37-3.299 c0-1.23,0.503-2.433,1.37-3.3c0.867-0.866,2.06-1.36,3.29-1.36s2.433,0.494,3.299,1.36c0.866,0.867,1.36,2.069,1.36,3.3 C425.7,420.313,425.206,421.516,424.34,422.392z" id="XMLID_15815_"/> </g> </g> <g id="Layer_1"/> </g>
</svg>